<?xml version="1.0" standalone="no"?>
<!DOCTYPE svg PUBLIC "-//W3C//DTD SVG 20010904//EN"
 "http://www.w3.org/TR/2001/REC-SVG-20010904/DTD/svg10.dtd">
<svg version="1.0" xmlns="http://www.w3.org/2000/svg"
 width="240.000000pt" height="240.000000pt" viewBox="0 0 240.000000 240.000000"
 preserveAspectRatio="xMidYMid meet">

<g transform="translate(0.000000,240.000000) scale(0.100000,-0.100000)"
fill="#000000" stroke="none">
<path d="M1038 2393 c7 -3 16 -2 19 1 4 3 -2 6 -13 5 -11 0 -14 -3 -6 -6z"/>
<path d="M2245 2390 c22 -5 5 -8 -60 -10 l-90 -3 85 -13 85 -13 -145 4 -145 3
113 -12 c62 -7 115 -16 119 -19 3 -4 -39 -5 -93 -2 l-99 4 85 -13 85 -13 -80
-3 -80 -3 55 -7 55 -7 -80 -3 -80 -2 60 -9 c98 -14 96 -18 -10 -14 -99 4 -99
4 -30 -5 112 -16 108 -19 -20 -15 l-120 4 105 -12 105 -12 -60 -5 c-57 -6 -58
-6 -20 -11 l40 -6 -45 -3 -45 -3 40 -7 40 -7 -47 -2 c-27 0 -48 -6 -48 -11 0
-6 -12 -8 -27 -5 -23 4 -25 4 -8 -4 17 -8 15 -10 -15 -12 l-35 -2 35 -7 35 -7
-32 -2 c-24 -1 -31 -5 -27 -16 4 -10 0 -15 -16 -15 -11 0 -19 -4 -15 -9 3 -5
-4 -12 -15 -16 -11 -4 -18 -10 -15 -15 7 -12 -51 -78 -76 -85 -11 -4 -18 -9
-15 -12 3 -3 -27 -29 -67 -59 -66 -48 -76 -53 -134 -56 -35 -2 -63 0 -63 4 0
3 -13 11 -30 16 -22 8 -29 8 -27 -1 1 -6 -11 -13 -27 -16 -17 -3 -29 -9 -28
-13 5 -21 -2 -26 -49 -32 -29 -4 -70 -17 -93 -28 -23 -12 -54 -21 -69 -20 -28
2 -28 2 -26 -50 3 -80 -33 -177 -75 -206 -24 -16 -37 -36 -46 -68 -7 -24 -19
-48 -26 -52 -12 -7 -14 -11 -14 -33 0 -5 -5 -7 -10 -4 -6 3 -10 -3 -10 -14 0
-14 -5 -19 -15 -15 -8 4 -12 10 -9 15 3 5 0 9 -5 9 -15 0 -14 -13 2 -29 10
-11 9 -14 -1 -18 -10 -4 -10 -8 -2 -19 10 -10 8 -12 -9 -9 -12 2 -21 -1 -21
-6 0 -6 -6 -9 -12 -6 -8 2 -19 -17 -29 -52 -9 -31 -33 -102 -53 -159 l-36
-104 0 -184 c0 -116 4 -184 10 -184 6 0 10 8 11 18 0 10 3 12 6 4 8 -20 23 -3
23 28 0 38 10 61 23 53 6 -4 8 0 4 9 -3 9 0 21 6 27 14 14 40 15 32 1 -3 -5
-2 -10 2 -10 8 0 10 -66 3 -80 -1 -3 -2 -8 -1 -13 0 -4 -4 -6 -11 -5 -7 2 -12
-2 -13 -9 0 -6 -3 -15 -7 -19 -5 -4 -8 -16 -8 -27 0 -16 -6 -19 -40 -15 -37 3
-40 2 -40 -22 0 -14 -3 -132 -7 -262 l-5 -238 95 0 95 0 6 27 c2 16 7 55 11
88 3 33 10 83 15 110 14 80 22 202 12 187 -8 -11 -10 -11 -15 1 -8 21 3 57 18
57 18 0 97 89 90 100 -4 6 -1 9 6 8 6 -2 14 3 17 11 3 9 0 11 -9 6 -8 -5 -11
-4 -6 1 5 5 13 9 19 9 6 0 32 31 59 69 66 96 72 101 90 80 9 -12 10 -15 2 -10
-9 5 -13 1 -13 -11 1 -16 3 -15 20 6 11 13 20 18 20 12 0 -6 21 -25 47 -41 36
-23 57 -30 92 -28 36 1 39 2 14 5 l-32 4 36 34 c36 34 79 50 89 33 4 -6 10 -5
14 3 7 10 11 10 24 -1 14 -11 16 -10 10 4 -3 9 -4 16 -1 16 3 0 17 -38 32 -85
36 -113 32 -176 -14 -217 -17 -15 -28 -28 -23 -28 16 0 60 56 71 92 13 40 8
91 -15 152 -11 29 -12 41 -4 46 8 5 6 9 -5 14 -26 9 -7 26 30 26 18 0 59 13
90 30 43 22 61 27 75 20 15 -8 17 -6 14 13 -5 21 -4 21 8 2 20 -29 121 -136
125 -131 2 2 -14 32 -36 67 -23 35 -41 71 -41 80 0 9 -7 22 -15 29 -16 13 -45
103 -47 142 -1 13 -8 48 -15 78 -20 74 -18 415 3 548 4 29 37 72 55 72 4 0 6
-11 3 -25 -4 -20 0 -25 18 -26 39 -2 62 2 88 17 l25 15 -25 -6 c-22 -5 -23 -4
-7 5 13 8 22 8 31 1 7 -6 16 -7 22 -2 5 5 18 11 29 13 11 1 22 6 25 9 5 5 226
89 235 89 3 0 5 -7 5 -15 0 -19 16 -20 23 -1 3 8 1 17 -6 19 -7 2 20 14 58 27
39 13 65 25 59 27 -5 2 -106 -33 -224 -77 -117 -44 -215 -79 -217 -77 -2 2 97
43 219 90 l223 85 3 236 c1 130 0 236 -4 236 -3 0 -44 -28 -91 -61 -80 -57
-88 -60 -99 -44 -17 22 -16 23 43 64 26 18 37 23 24 11 -20 -17 -22 -23 -11
-33 10 -10 11 -9 5 2 -6 11 -4 13 7 8 11 -4 18 2 22 19 4 14 11 22 16 19 6 -4
8 -12 4 -18 -3 -7 2 -3 11 8 9 11 20 19 25 18 5 -2 7 4 4 12 -5 11 -2 13 12 8
12 -4 15 -3 10 5 -5 8 -35 12 -84 11 -57 -1 -69 -3 -47 -9z m85 -16 c0 -8 -5
-12 -10 -9 -6 4 -8 11 -5 16 9 14 15 11 15 -7z m-127 -134 c-17 -15 -333 -230
-339 -230 -3 0 -2 5 2 12 4 7 3 8 -5 4 -6 -4 -9 -11 -6 -16 3 -4 -35 -35 -84
-69 -49 -33 -91 -68 -95 -77 -3 -8 -6 -42 -6 -75 0 -50 3 -59 18 -59 16 0 17
-12 11 -167 -10 -250 -10 -248 -20 -183 -17 106 -66 276 -87 304 -5 6 -12 20
-16 30 -5 16 -4 17 9 6 9 -8 15 -8 15 -2 0 6 -8 17 -17 24 -25 18 -28 71 -7
93 19 18 86 69 179 134 33 23 87 61 120 85 36 26 64 40 70 35 13 -10 69 36 61
50 -4 5 8 19 26 31 l33 22 -27 -25 c-15 -14 -24 -27 -21 -30 3 -3 17 5 31 18
14 13 29 22 34 19 4 -3 8 0 8 5 0 6 -5 11 -11 11 -5 0 -7 5 -4 11 5 6 12 4 22
-8 8 -10 12 -13 9 -6 -6 11 10 28 27 28 4 0 7 5 6 10 -1 6 -6 9 -12 7 -7 -1 1
9 18 22 27 24 31 24 47 9 10 -9 15 -20 11 -23z m-219 -114 c-3 -8 -13 -17 -22
-21 -13 -5 -13 -2 3 15 21 24 26 25 19 6z m-569 -314 c-3 -3 -11 0 -18 7 -9
10 -8 11 6 5 10 -3 15 -9 12 -12z m417 -4 c-7 -7 -12 -22 -12 -34 0 -19 -5
-21 -49 -20 -56 1 -55 4 13 40 54 29 66 32 48 14z m-292 -18 c6 -11 8 -20 6
-20 -3 0 -10 9 -16 20 -6 11 -8 20 -6 20 3 0 10 -9 16 -20z m-247 -349 c42
-26 46 -36 17 -51 -11 -6 -20 -15 -20 -21 0 -6 8 -6 21 1 15 9 24 8 35 -1 19
-16 18 -23 -8 -34 -42 -18 -28 -40 25 -40 62 0 77 -19 77 -94 -1 -73 -17 -199
-30 -232 -15 -36 -60 -59 -117 -59 -37 0 -55 5 -68 20 -10 11 -14 20 -10 20 5
0 4 5 -3 12 -19 19 -14 28 17 28 16 0 37 7 45 16 9 8 36 22 61 30 25 9 45 18
45 21 0 2 -29 2 -64 -2 -43 -5 -66 -3 -70 4 -4 6 -12 9 -17 6 -5 -4 -6 7 -3
23 4 17 1 32 -5 37 -8 4 -10 33 -5 95 6 79 5 91 -16 128 -15 27 -28 38 -38 35
-12 -5 -11 -1 3 20 9 15 23 27 31 27 7 0 21 12 30 26 10 14 20 21 23 17 3 -5
23 -19 44 -32z m65 4 c-3 -3 -9 2 -12 12 -6 14 -5 15 5 6 7 -7 10 -15 7 -18z
m62 -65 c0 -5 -2 -10 -4 -10 -3 0 -8 5 -11 10 -3 6 -1 10 4 10 6 0 11 -4 11
-10z m-235 -50 c3 -6 -1 -7 -9 -4 -18 7 -21 14 -7 14 6 0 13 -4 16 -10z m302
-52 c-3 -7 -5 -2 -5 12 0 14 2 19 5 13 2 -7 2 -19 0 -25z m-312 -30 c13 -12 6
-137 -10 -167 -12 -23 -12 -23 -43 31 -37 64 -42 123 -14 144 17 13 48 10 67
-8z m322 -80 c-2 -13 -4 -3 -4 22 0 25 2 35 4 23 2 -13 2 -33 0 -45z m-648
-18 c-7 -5 -14 -25 -16 -46 -1 -21 -8 -43 -14 -48 -9 -8 -10 -4 -5 14 3 14 6
44 6 68 0 26 4 41 10 37 6 -3 10 0 10 7 0 7 5 5 11 -6 9 -14 8 -20 -2 -26z
m-4 -127 c-23 -78 -37 -109 -30 -63 11 60 15 79 25 106 19 48 22 17 5 -43z
m255 37 c0 -5 -6 -10 -14 -10 -8 0 -18 5 -21 10 -3 6 3 10 14 10 12 0 21 -4
21 -10z m80 -31 c0 -6 -4 -7 -10 -4 -5 3 -10 11 -10 16 0 6 5 7 10 4 6 -3 10
-11 10 -16z m-35 -30 c17 -23 28 -46 26 -53 -8 -25 -9 -56 -1 -56 5 0 10 11
12 25 2 18 7 22 17 16 10 -6 11 -13 2 -29 -9 -18 -8 -21 12 -25 12 -2 0 -5
-26 -6 -27 0 -58 -6 -69 -12 -29 -16 -37 2 -35 78 1 45 -2 63 -10 63 -7 0 -13
5 -13 10 0 6 6 10 13 10 8 0 7 4 -3 10 -12 7 -8 10 15 10 24 0 36 -9 60 -41z
m-305 -76 c-10 -16 -11 -15 -6 7 3 14 6 32 7 40 1 8 4 5 6 -7 2 -12 -1 -30 -7
-40z m924 -29 c3 -8 2 -12 -4 -9 -6 3 -10 10 -10 16 0 14 7 11 14 -7z m-934
-9 c0 -8 -4 -15 -10 -15 -5 0 -7 7 -4 15 4 8 8 15 10 15 2 0 4 -7 4 -15z m72
-13 c-10 -3 -10 -7 -2 -17 17 -20 2 -54 -26 -61 -43 -11 -43 -2 0 77 6 10 16
14 25 11 11 -4 11 -7 3 -10z m-142 -27 c0 -17 -5 -25 -17 -24 -11 0 -13 3 -5
6 6 2 12 13 12 24 0 10 2 19 5 19 3 0 5 -11 5 -25z m64 -10 c-4 -8 -8 -15 -10
-15 -2 0 -4 7 -4 15 0 8 4 15 10 15 5 0 7 -7 4 -15z m292 -105 c-14 -22 -26
-43 -26 -48 0 -4 -6 -17 -14 -28 -11 -14 -10 -5 3 34 17 50 49 97 59 87 3 -2
-7 -23 -22 -45z m-276 10 c0 -5 -5 -10 -11 -10 -5 0 -7 5 -4 10 3 6 8 10 11
10 2 0 4 -4 4 -10z m167 -15 c-3 -28 -17 -46 -17 -22 0 18 10 47 16 47 3 0 3
-11 1 -25z m-11 -98 c-4 -53 -45 -153 -54 -129 -2 7 2 20 10 29 11 14 11 16
-1 8 -11 -6 -13 -4 -8 9 4 10 7 32 7 49 1 29 2 30 14 14 12 -16 14 -13 20 28
10 62 17 57 12 -8z m-66 -89 c0 -16 -3 -19 -11 -11 -6 6 -8 16 -5 22 11 17 16
13 16 -11z m-25 -18 c3 -6 -1 -13 -9 -16 -9 -3 -13 -10 -10 -15 3 -6 0 -16 -6
-24 -6 -8 -9 -19 -5 -25 4 -6 3 -10 -2 -9 -4 1 -21 -3 -36 -9 -16 -7 -30 -12
-32 -12 -4 0 10 59 20 82 4 10 10 16 15 13 4 -2 16 2 26 10 23 17 31 18 39 5z
m-143 -61 c2 -21 2 -39 1 -39 -6 0 -43 66 -43 77 0 6 8 9 19 6 14 -3 20 -16
23 -44z"/>
<path d="M2156 2251 c-3 -5 1 -11 9 -15 15 -6 29 7 18 18 -9 9 -21 8 -27 -3z"/>
<path d="M1278 1123 c7 -3 16 -2 19 1 4 3 -2 6 -13 5 -11 0 -14 -3 -6 -6z"/>
<path d="M1100 989 c0 -5 5 -7 10 -4 6 3 10 8 10 11 0 2 -4 4 -10 4 -5 0 -10
-5 -10 -11z"/>
<path d="M1117 923 c-4 -3 -7 -16 -6 -27 0 -19 1 -19 10 3 10 24 8 36 -4 24z"/>
<path d="M748 2383 c12 -2 30 -2 40 0 9 3 -1 5 -23 4 -22 0 -30 -2 -17 -4z"/>
<path d="M2018 2383 c6 -2 18 -2 25 0 6 3 1 5 -13 5 -14 0 -19 -2 -12 -5z"/>
<path d="M878 2373 c12 -2 32 -2 45 0 12 2 2 4 -23 4 -25 0 -35 -2 -22 -4z"/>
<path d="M724 2359 c-5 -8 258 -23 278 -17 7 3 -52 9 -130 14 -79 5 -146 6
-148 3z"/>
<path d="M1088 2333 c12 -2 32 -2 45 0 12 2 2 4 -23 4 -25 0 -35 -2 -22 -4z"/>
<path d="M2215 2297 c-12 -10 -14 -16 -7 -21 7 -4 12 -2 12 3 0 6 5 10 11 9 6
-2 14 3 16 10 6 16 -9 15 -32 -1z"/>
<path d="M743 2143 c15 -2 37 -2 50 0 12 2 0 4 -28 4 -27 0 -38 -2 -22 -4z"/>
<path d="M1130 2110 c0 -5 11 -10 25 -10 14 0 25 5 25 10 0 6 -11 10 -25 10
-14 0 -25 -4 -25 -10z"/>
<path d="M1068 1903 c6 -2 18 -2 25 0 6 3 1 5 -13 5 -14 0 -19 -2 -12 -5z"/>
<path d="M410 1886 c0 -2 8 -10 18 -17 15 -13 16 -12 3 4 -13 16 -21 21 -21
13z"/>
<path d="M720 1849 c0 -11 4 -17 10 -14 6 4 17 2 24 -4 11 -9 18 -8 29 4 9 8
26 15 39 16 23 1 23 1 -2 9 -14 4 -42 8 -62 9 -32 1 -38 -2 -38 -20z"/>
<path d="M520 1831 c0 -7 -4 -9 -10 -6 -5 3 -10 1 -10 -4 0 -6 4 -11 9 -11 13
0 25 20 17 27 -3 4 -6 1 -6 -6z"/>
<path d="M1073 1833 c9 -2 25 -2 35 0 9 3 1 5 -18 5 -19 0 -27 -2 -17 -5z"/>
<path d="M1031 1717 c-31 -51 -56 -70 -69 -54 -7 8 -7 18 -2 27 6 8 9 22 9 30
-1 28 -28 -45 -29 -77 0 -42 -9 -63 -26 -63 -8 0 -14 11 -15 28 0 15 -4 36 -9
47 -6 14 -9 4 -9 -38 -1 -42 -5 -57 -13 -55 -13 5 -14 7 -16 107 -2 73 -11 78
-13 8 -3 -60 -19 -56 -37 7 -11 38 -16 45 -27 36 -21 -17 -65 -159 -65 -209 0
-61 9 -46 21 34 8 62 36 136 40 108 5 -36 24 -76 47 -97 23 -20 47 -18 111 11
20 9 44 15 54 14 10 -1 21 8 26 22 6 14 15 28 20 32 6 3 11 19 11 35 0 16 4
40 10 54 13 36 6 33 -19 -7z"/>
<path d="M355 1720 c-3 -6 1 -7 9 -4 18 7 21 14 7 14 -6 0 -13 -4 -16 -10z"/>
<path d="M891 1694 c0 -11 3 -14 6 -6 3 7 2 16 -1 19 -3 4 -6 -2 -5 -13z"/>
<path d="M1967 1686 c-4 -10 -1 -13 8 -9 8 3 12 9 9 14 -7 12 -11 11 -17 -5z"/>
<path d="M2077 1679 c7 -7 15 -10 18 -7 3 3 -2 9 -12 12 -14 6 -15 5 -6 -5z"/>
<path d="M2196 1679 c3 -5 0 -9 -6 -9 -6 0 -8 -4 -5 -10 3 -6 -1 -7 -9 -4 -9
3 -16 1 -16 -5 0 -6 7 -11 15 -11 8 0 15 -4 15 -10 0 -5 15 -10 33 -10 25 0
29 -3 17 -11 -13 -9 -12 -10 2 -5 25 7 33 -12 17 -41 -11 -20 -11 -26 1 -33
17 -11 14 -12 -30 -14 -16 0 -30 2 -30 7 0 4 -12 12 -27 18 -22 8 -24 12 -13
19 24 16 40 11 40 -10 0 -13 7 -20 19 -20 12 0 18 6 17 15 -1 9 -5 15 -9 15
-11 -1 -35 24 -31 31 2 4 -2 12 -10 18 -10 9 -16 8 -26 -4 -9 -10 -9 -15 -1
-15 6 0 11 5 11 11 0 5 5 7 10 4 16 -10 -10 -37 -27 -31 -8 3 -11 1 -8 -4 3
-6 -1 -10 -9 -10 -9 0 -16 -4 -16 -10 0 -5 -6 -10 -14 -10 -21 0 -29 -30 -8
-31 12 0 9 -4 -9 -12 -14 -7 -33 -20 -43 -29 -10 -10 -26 -18 -37 -18 -17 0
-18 -3 -8 -22 11 -20 10 -21 -3 -10 -11 9 -23 10 -42 2 -14 -5 -26 -12 -26
-16 0 -3 7 -4 15 0 18 6 21 -29 4 -40 -8 -4 -7 -9 2 -14 20 -13 19 -36 -2 -37
-11 -1 -17 2 -14 8 4 5 3 9 -2 9 -4 0 -17 7 -27 15 -13 10 -16 18 -9 27 24 31
22 45 -7 46 -22 0 -27 -3 -23 -15 4 -11 2 -14 -5 -9 -7 4 -14 -3 -18 -19 -8
-33 1 -42 23 -24 16 13 17 12 4 -4 -12 -15 -11 -20 4 -37 10 -11 15 -23 11
-28 -4 -4 -13 1 -20 10 -7 10 -16 15 -19 11 -14 -13 -7 -87 11 -107 16 -20 16
-20 0 -7 -16 12 -18 11 -18 -7 0 -11 -3 -27 -6 -36 -3 -9 -1 -16 6 -16 6 0 8
5 4 12 -4 7 -3 8 4 4 9 -5 9 -13 2 -26 -15 -27 -12 -33 10 -27 11 3 18 2 15
-3 -3 -4 2 -13 10 -20 13 -11 18 -10 30 6 13 18 14 18 8 -3 -3 -14 -1 -23 6
-23 6 0 11 7 11 16 0 11 5 14 16 10 9 -3 17 -6 20 -6 2 0 1 -8 -2 -17 -5 -15
-4 -15 4 -4 12 17 52 23 52 8 0 -5 6 -4 13 2 8 6 17 9 21 6 3 -3 2 0 -3 7 -7
7 -5 21 5 39 15 29 28 40 18 16 -3 -8 2 -20 10 -27 9 -7 13 -17 10 -22 -4 -6
8 -7 31 -4 50 8 56 13 49 42 -5 21 -3 23 12 17 11 -3 26 -15 35 -25 10 -11 23
-16 33 -12 9 3 16 2 16 -4 0 -10 56 -28 74 -23 5 1 17 -6 27 -15 18 -16 18
-11 18 144 1 131 -2 160 -13 156 -7 -3 -16 2 -19 10 -4 9 -12 16 -18 16 -9 0
-9 -4 0 -14 8 -10 9 -16 1 -21 -5 -3 -10 0 -10 7 0 9 -3 9 -10 -2 -5 -8 -10
-10 -10 -3 0 6 -8 9 -19 6 -10 -3 -22 0 -26 7 -10 17 2 25 18 12 10 -9 18 -8
33 3 16 12 17 17 7 34 -18 29 -16 41 8 41 11 0 17 5 14 10 -3 6 -1 10 4 10 6
0 11 -6 11 -12 0 -7 3 -24 7 -37 4 -17 3 -22 -6 -17 -6 4 -9 12 -6 17 4 5 2 9
-4 9 -19 0 -19 -15 -1 -38 30 -36 40 -27 40 37 0 43 -4 60 -15 65 -8 3 -12 12
-9 21 3 8 1 15 -5 15 -6 0 -11 6 -11 14 0 17 -27 29 -35 15 -4 -5 4 -24 16
-42 l23 -32 -22 19 c-12 11 -22 15 -22 10 -1 -5 -8 3 -16 19 -8 15 -12 32 -9
37 3 6 1 10 -5 10 -7 0 -8 6 -1 19 8 13 6 23 -5 37 -14 18 -15 18 -9 -3 6 -23
-8 -32 -20 -13 -3 6 -16 10 -29 10 -21 0 -25 13 -16 50 0 3 7 -6 16 -20 l14
-25 -2 25 c-2 18 -9 25 -25 26 -12 1 -20 -3 -17 -7z m89 -179 c-4 -6 -11 -8
-16 -5 -5 3 -6 -1 -3 -9 4 -11 0 -16 -15 -16 -26 0 -27 8 -3 26 20 16 46 18
37 4z m-85 -10 c0 -5 -5 -10 -11 -10 -5 0 -7 5 -4 10 3 6 8 10 11 10 2 0 4 -4
4 -10z m134 -15 c3 -8 1 -15 -3 -15 -5 0 -11 7 -15 15 -3 8 -1 15 3 15 5 0 11
-7 15 -15z m-241 -20 c-3 -8 -13 -15 -23 -15 -11 0 -22 -4 -25 -10 -3 -5 -1
-10 5 -10 6 0 9 -4 6 -8 -3 -5 1 -20 8 -34 12 -23 12 -25 -6 -20 -13 3 -18 11
-15 23 6 21 -8 26 -17 7 -3 -7 -3 1 0 17 3 17 17 40 31 53 26 23 46 22 36 -3z
m217 -17 c0 -5 -9 -4 -20 2 -16 9 -22 8 -26 -5 -8 -19 -2 -26 24 -28 11 0 19
-5 16 -9 -3 -4 -11 -5 -19 -1 -8 3 -15 0 -15 -6 0 -6 -9 -11 -19 -11 -10 0
-21 -6 -24 -14 -8 -20 -61 -14 -65 8 -2 9 2 16 10 16 7 0 19 4 27 9 12 8 13
12 1 25 -7 9 -10 19 -6 23 3 3 6 1 6 -5 0 -7 10 -11 23 -11 17 1 18 2 4 6 -9
2 -15 9 -12 14 4 5 17 6 29 3 17 -4 25 0 30 13 7 17 8 17 22 -1 8 -11 14 -24
14 -28z m-165 -98 c3 -5 1 -10 -4 -10 -6 0 -11 5 -11 10 0 6 2 10 4 10 3 0 8
-4 11 -10z m138 -20 c3 -11 0 -20 -6 -20 -8 0 -8 -3 1 -12 8 -8 15 -8 27 2 8
7 18 10 21 7 8 -8 -6 -28 -16 -22 -4 3 -7 -2 -6 -10 0 -7 -3 -13 -9 -12 -5 1
-9 6 -7 11 2 5 -4 6 -12 3 -17 -7 -33 33 -21 52 3 7 0 8 -9 5 -9 -3 -16 -1
-16 4 0 10 29 21 41 15 4 -1 9 -12 12 -23z m-268 11 c3 -5 2 -12 -3 -15 -5 -3
-9 1 -9 9 0 17 3 19 12 6z m350 -21 c3 -5 1 -10 -4 -10 -6 0 -11 5 -11 10 0 6
2 10 4 10 3 0 8 -4 11 -10z m-452 -15 c-3 -9 -8 -14 -10 -11 -3 3 -2 9 2 15 9
16 15 13 8 -4z m-23 -32 c0 -5 -5 -15 -10 -23 -7 -12 -12 -12 -22 -2 -9 9 -9
12 1 12 7 0 9 5 6 10 -3 6 1 10 9 10 9 0 16 -3 16 -7z m17 -15 c-3 -8 -6 -5
-6 6 -1 11 2 17 5 13 3 -3 4 -12 1 -19z m268 2 c-3 -5 -12 -10 -18 -10 -7 0
-6 4 3 10 19 12 23 12 15 0z m-234 -40 c23 0 25 -18 3 -27 -10 -4 -22 1 -30
11 -12 17 -12 17 -16 0 -3 -16 -4 -16 -18 1 -9 11 -10 16 -2 11 7 -4 12 -2 12
4 0 7 7 9 16 6 9 -3 24 -6 35 -6z m137 -35 c-3 -3 -9 2 -12 12 -6 14 -5 15 5
6 7 -7 10 -15 7 -18z m-18 -51 c0 -8 -5 -12 -10 -9 -6 4 -8 11 -5 16 9 14 15
11 15 -7z m-165 -4 c-3 -5 -10 -10 -16 -10 -5 0 -9 5 -9 10 0 6 7 10 16 10 8
0 12 -4 9 -10z m49 1 c3 -5 -5 -11 -19 -13 -20 -4 -23 -3 -14 8 13 16 25 18
33 5z m416 -6 c11 -13 10 -14 -4 -9 -9 3 -16 10 -16 15 0 13 6 11 20 -6z m-42
-23 c2 -7 -2 -10 -12 -6 -9 3 -16 11 -16 16 0 13 23 5 28 -10z m32 -12 c0 -5
-2 -10 -4 -10 -3 0 -8 5 -11 10 -3 6 -1 10 4 10 6 0 11 -4 11 -10z"/>
<path d="M2250 1680 c0 -5 5 -10 11 -10 5 0 7 5 4 10 -3 6 -8 10 -11 10 -2 0
-4 -4 -4 -10z"/>
<path d="M2318 1663 c7 -3 16 -2 19 1 4 3 -2 6 -13 5 -11 0 -14 -3 -6 -6z"/>
<path d="M2054 1579 c3 -31 26 -55 26 -29 0 7 7 10 15 6 8 -3 15 0 15 5 0 6
-9 9 -20 6 -15 -4 -20 0 -20 13 0 11 -4 22 -10 25 -6 4 -9 -7 -6 -26z"/>
<path d="M1974 1586 c-6 -6 -9 -17 -6 -25 2 -7 -2 -17 -9 -22 -11 -7 -11 -9
-1 -9 7 0 11 -4 7 -9 -3 -5 -1 -12 5 -16 5 -3 10 -2 10 3 0 6 9 8 20 5 20 -5
29 12 10 19 -6 2 -12 16 -14 31 -3 33 -8 38 -22 23z"/>
<path d="M2240 1580 c0 -5 5 -10 10 -10 6 0 10 5 10 10 0 6 -4 10 -10 10 -5 0
-10 -4 -10 -10z"/>
<path d="M1994 1493 c10 -10 46 -11 46 -1 0 4 -12 8 -27 8 -14 0 -23 -3 -19
-7z"/>
<path d="M1935 1479 c-4 -5 -13 -8 -21 -5 -8 3 -14 1 -14 -4 0 -6 4 -10 9 -10
5 0 8 -8 7 -17 0 -10 6 -18 14 -18 8 0 14 5 13 11 -1 7 6 10 16 7 20 -5 37 22
21 32 -6 4 -10 1 -10 -4 0 -6 -8 -11 -17 -11 -14 0 -15 2 -4 9 8 5 9 11 3 15
-6 3 -14 1 -17 -5z"/>
<path d="M712 1385 l1 -80 7 65 c4 36 3 72 -1 80 -5 8 -8 -20 -7 -65z"/>
<path d="M340 1430 c0 -5 5 -10 11 -10 5 0 7 5 4 10 -3 6 -8 10 -11 10 -2 0
-4 -4 -4 -10z"/>
<path d="M269 1123 c-12 -16 -12 -17 2 -6 9 7 20 9 24 5 5 -4 5 -1 1 6 -9 16
-11 15 -27 -5z"/>
<path d="M1840 1046 c0 -7 11 -16 25 -18 14 -3 25 -1 25 5 0 5 6 4 15 -3 8 -6
23 -9 35 -5 36 11 21 23 -25 20 -25 -1 -48 1 -51 6 -8 14 -24 11 -24 -5z"/>
<path d="M1850 1000 c0 -5 7 -10 16 -10 8 0 12 5 9 10 -3 6 -10 10 -16 10 -5
0 -9 -4 -9 -10z"/>
<path d="M1890 995 c0 -10 9 -14 25 -13 14 1 25 8 25 15 0 7 -11 13 -25 13
-15 0 -25 -6 -25 -15z"/>
<path d="M2125 990 c3 -5 11 -10 16 -10 6 0 7 5 4 10 -3 6 -11 10 -16 10 -6 0
-7 -4 -4 -10z"/>
<path d="M2010 975 c0 -8 2 -15 4 -15 2 0 13 -3 23 -7 15 -6 16 -4 5 9 -10 13
-10 17 0 21 7 3 3 6 -9 6 -14 1 -23 -5 -23 -14z"/>
<path d="M2172 981 c-18 -11 41 -35 69 -28 14 4 19 2 15 -8 -4 -11 39 -35 132
-72 9 -4 12 4 10 29 -2 31 -4 34 -30 30 -16 -3 -28 0 -28 7 0 6 3 10 8 10 18
-3 32 2 32 12 0 5 -4 8 -9 4 -5 -3 -13 0 -17 6 -4 8 -9 7 -16 -2 -7 -11 -11
-11 -15 -1 -2 6 -9 12 -14 12 -6 0 -8 -4 -4 -9 3 -5 1 -12 -5 -16 -5 -3 -10
-2 -10 3 0 5 -11 8 -24 7 -14 -2 -27 3 -30 11 -3 8 -13 14 -22 14 -10 0 -14
-5 -11 -14 4 -10 1 -13 -8 -9 -8 3 -12 9 -9 14 6 11 3 11 -14 0z"/>
<path d="M2060 959 c0 -10 10 -19 25 -21 20 -4 25 -1 24 16 0 11 -3 15 -6 9
-2 -7 -12 -13 -21 -12 -11 0 -12 2 -4 6 17 7 15 20 -3 20 -8 0 -15 -8 -15 -18z"/>
<path d="M1856 943 c-4 -9 -2 -21 4 -27 7 -7 10 -2 10 17 0 31 -5 34 -14 10z"/>
<path d="M1896 944 c-10 -25 -7 -34 9 -34 8 0 15 2 15 4 0 2 3 11 6 19 3 8 -1
17 -10 20 -8 3 -17 -1 -20 -9z"/>
<path d="M2130 942 c0 -11 11 -24 24 -30 20 -9 25 -8 29 8 3 12 -3 21 -20 29
-32 14 -33 14 -33 -7z"/>
<path d="M1942 913 c4 -39 28 -42 28 -4 0 21 -5 31 -16 31 -11 0 -14 -8 -12
-27z"/>
<path d="M2000 925 c0 -8 5 -15 10 -15 12 0 13 -37 1 -42 -4 -1 -1 -10 8 -20
15 -15 16 -14 19 18 2 37 -12 74 -28 74 -6 0 -10 -7 -10 -15z"/>
<path d="M2200 906 c0 -14 7 -26 18 -29 9 -2 25 -8 35 -12 16 -6 18 -4 15 15
-2 16 -14 28 -35 37 -32 13 -33 12 -33 -11z"/>
<path d="M2058 885 c-2 -19 0 -41 4 -48 6 -9 8 -9 8 2 0 11 3 11 15 1 8 -7 13
-16 10 -20 -3 -5 -1 -11 5 -15 6 -4 10 11 10 39 0 25 -4 46 -10 46 -5 0 -10 7
-10 15 0 32 -28 14 -32 -20z"/>
<path d="M2128 848 c-1 -27 0 -52 5 -55 4 -2 5 -8 2 -12 -2 -5 7 -13 20 -19
25 -12 25 -11 25 43 0 30 -4 55 -10 55 -5 0 -10 6 -10 14 0 8 -6 16 -14 19
-11 4 -15 -6 -18 -45z"/>
<path d="M2290 866 c0 -16 10 -27 36 -39 l35 -17 -3 26 c-2 18 -12 30 -35 39
-32 13 -33 13 -33 -9z"/>
<path d="M2200 800 c0 -52 3 -62 25 -76 13 -8 29 -13 34 -9 14 8 11 86 -3 102
-6 7 -17 19 -24 28 -23 28 -32 16 -32 -45z"/>
<path d="M2380 826 c0 -14 5 -26 10 -26 6 0 10 9 10 19 0 11 -4 23 -10 26 -6
4 -10 -5 -10 -19z"/>
<path d="M160 816 c0 -2 7 -7 16 -10 8 -3 12 -2 9 4 -6 10 -25 14 -25 6z"/>
<path d="M2280 760 c0 -64 4 -68 58 -54 25 7 28 27 10 67 -11 21 -45 47 -63
47 -3 0 -5 -27 -5 -60z"/>
<path d="M2380 740 c0 -16 5 -30 10 -30 6 0 10 14 10 30 0 17 -4 30 -10 30 -5
0 -10 -13 -10 -30z"/>
<path d="M2341 671 c-8 -5 -9 -11 -3 -15 5 -3 12 1 16 9 6 17 6 18 -13 6z"/>
<path d="M2006 547 c3 -10 9 -15 12 -12 3 3 0 11 -7 18 -10 9 -11 8 -5 -6z"/>
<path d="M2050 506 c14 -9 32 -15 40 -15 13 0 13 1 0 8 -8 5 -26 12 -40 15
l-25 7 25 -15z"/>
<path d="M220 270 c-8 -5 -12 -12 -9 -15 4 -3 12 1 19 10 14 17 11 19 -10 5z"/>
</g>
</svg>
